# xmcd CD database file
# Copyright (C) 1995-1998 Ti Kan
#
# Track frame offsets:
#	150
#	12686
#	33671
#	46828
#	58000
#	72106
#	92130
#	105083
#	122578
#	137083
#	146081
#	167758
#	181610
#	195801
#	203030
#	212227
#
# Disc length: 3098 seconds
#
# Revision: 1
# Processed by: cddbd v1.4PL0 Copyright (c) Steve Scherf et al.
# Submitted via: CDex 1.30Release
#
DISCID=db0c1810
DTITLE=Neely, Bill - Austin's Original Singer-Songwriter
DYEAR=2002
DGENRE=Country
TTITLE0=Down In Ol' Caroline
TTITLE1=Blackland Farm
TTITLE2=Cryin' The Blues Over You
TTITLE3=Ella Speed
TTITLE4=Rock 'n' Roll Baby
TTITLE5=Hobo Bill's Last Ride
TTITLE6=Texas Map Song
TTITLE7=Skid Row
TTITLE8=Means To An End
TTITLE9=Austin Breakdown
TTITLE10=Blues On Ellum
TTITLE11=Satan's Burning Hell
TTITLE12=Gamblin' Blackie
TTITLE13=I Don't Love Nobody
TTITLE14=Wagon Yard
TTITLE15=Law And Justice
EXTD=YEAR: 2002 ID3G:   2
EXTT0=
EXTT1=
EXTT2=
EXTT3=
EXTT4=
EXTT5=
EXTT6=
EXTT7=
EXTT8=
EXTT9=
EXTT10=
EXTT11=
EXTT12=
EXTT13=
EXTT14=
EXTT15=
PLAYORDER=
